<svg xmlns="http://www.w3.org/2000/svg" xmlns:xlink="http://www.w3.org/1999/xlink" fill="none" version="1.1" width="50" height="50" viewBox="0 0 50 50"><defs><linearGradient x1="0.5" y1="0" x2="0.5" y2="1" id="master_svg0_119_06706"><stop offset="0%" stop-color="#06B666" stop-opacity="1"/><stop offset="100%" stop-color="#5DC495" stop-opacity="1"/></linearGradient><filter id="master_svg1_119_06353" filterUnits="objectBoundingBox" color-interpolation-filters="sRGB" x="0" y="0" width="39" height="39"><feFlood flood-opacity="0" result="BackgroundImageFix"/><feBlend mode="normal" in="SourceGraphic" in2="BackgroundImageFix" result="shape"/><feGaussianBlur in="BackgroundImage" stdDeviation="1.5"/><feComposite in2="SourceAlpha" operator="in" result="effect1_foregroundBlur"/><feBlend mode="normal" in="SourceGraphic" in2="effect1_foregroundBlur" result="shape"/></filter><filter id="master_svg2_119_04482" filterUnits="objectBoundingBox" color-interpolation-filters="sRGB" x="-6" y="-5" width="33" height="33"><feFlood flood-opacity="0" result="BackgroundImageFix"/><feColorMatrix in="SourceAlpha" type="matrix" values="0 0 0 0 0 0 0 0 0 0 0 0 0 0 0 0 0 0 127 0"/><feOffset dy="1" dx="0"/><feGaussianBlur stdDeviation="1.5"/><feColorMatrix type="matrix" values="0 0 0 0 0.0784313753247261 0 0 0 0 0.7254902124404907 0 0 0 0 0.4313725531101227 0 0 0 1 0"/><feBlend mode="normal" in2="BackgroundImageFix" result="effect1_dropShadow"/><feBlend mode="normal" in="SourceGraphic" in2="effect1_dropShadow" result="shape"/></filter></defs><g><g><g><rect x="4" y="2" width="32" height="32" rx="13" fill="url(#master_svg0_119_06706)" fill-opacity="1"/></g><g style="opacity:0.8999999761581421;" filter="url(#master_svg1_119_06353)"><path d="M46,27.5Q46,27.9787,45.9765,28.4568Q45.953,28.9349,45.9061,29.4113Q45.8592,29.8877,45.7889,30.3612Q45.7187,30.8348,45.6253,31.3043Q45.5319,31.7738,45.4156,32.2381Q45.2993,32.7025,45.1603,33.1605Q45.0214,33.6186,44.8601,34.0693Q44.6988,34.5201,44.5156,34.9623Q44.3325,35.4046,44.1278,35.8373Q43.9231,36.2701,43.6975,36.6922Q43.4718,37.1144,43.2257,37.525Q42.9796,37.9356,42.7137,38.333600000000004Q42.4477,38.7316,42.1625,39.1161Q41.8774,39.5006,41.5737,39.8707Q41.27,40.2407,40.9485,40.5954Q40.6271,40.9501,40.2886,41.2886Q39.9501,41.6271,39.5954,41.9485Q39.2407,42.27,38.8707,42.5737Q38.5006,42.8774,38.1161,43.1625Q37.7316,43.4477,37.333600000000004,43.7136Q36.9356,43.9796,36.525,44.2257Q36.1144,44.4718,35.6922,44.6975Q35.2701,44.9231,34.8373,45.1278Q34.4046,45.3325,33.9623,45.5156Q33.5201,45.6988,33.0693,45.8601Q32.6186,46.0214,32.1605,46.1603Q31.7025,46.2993,31.2381,46.4156Q30.7738,46.5319,30.3043,46.6253Q29.8348,46.7187,29.3612,46.7889Q28.8877,46.8592,28.4113,46.9061Q27.9349,46.953,27.4568,46.9765Q26.9787,47,26.5,47Q26.0213,47,25.5432,46.9765Q25.0651,46.953,24.5887,46.9061Q24.1123,46.8592,23.6388,46.7889Q23.1652,46.7187,22.695700000000002,46.6253Q22.2262,46.5319,21.7619,46.4156Q21.2975,46.2993,20.839399999999998,46.1603Q20.3814,46.0214,19.9306,45.8601Q19.4799,45.6988,19.0377,45.5156Q18.595399999999998,45.3325,18.1627,45.1278Q17.7299,44.9231,17.3078,44.6975Q16.88559,44.4718,16.475,44.2257Q16.0644,43.9796,15.66638,43.7137Q15.26836,43.4477,14.88386,43.1625Q14.499369999999999,42.8774,14.12933,42.5737Q13.75929,42.27,13.4046,41.9485Q13.04991,41.6271,12.71142,41.2886Q12.37293,40.9501,12.051449999999999,40.5954Q11.729980000000001,40.2407,11.426300000000001,39.8707Q11.12261,39.5006,10.83745,39.1161Q10.55229,38.7316,10.28634,38.333600000000004Q10.020389999999999,37.9356,9.77429,37.525Q9.52819,37.1144,9.30254,36.6922Q9.07688,36.2701,8.872209999999999,35.8373Q8.66754,35.4046,8.48435,34.9623Q8.30116,34.5201,8.13989,34.0693Q7.978622,33.6186,7.839663,33.1605Q7.700705,32.7025,7.58439,32.2381Q7.468076,31.7738,7.374687,31.3043Q7.281298,30.8348,7.211058,30.3612Q7.140818,29.8877,7.0938978,29.4113Q7.0469772,28.9349,7.0234886,28.4568Q7,27.9787,7,27.5Q7,27.0213,7.0234886,26.5432Q7.0469772,26.0651,7.0938978,25.5887Q7.140818,25.1123,7.211058,24.6388Q7.281298,24.1652,7.374687,23.695700000000002Q7.468076,23.2262,7.58439,22.7619Q7.700705,22.2975,7.839663,21.839399999999998Q7.978622,21.3814,8.13989,20.9306Q8.30116,20.4799,8.48435,20.0377Q8.66754,19.595399999999998,8.872209999999999,19.1627Q9.07688,18.7299,9.30254,18.3078Q9.52819,17.88559,9.77429,17.475Q10.020389999999999,17.0644,10.28634,16.66638Q10.55229,16.26836,10.83745,15.88386Q11.12261,15.499369999999999,11.426300000000001,15.12933Q11.729980000000001,14.75929,12.051449999999999,14.4046Q12.37293,14.04991,12.71142,13.71142Q13.04991,13.37293,13.4046,13.051449999999999Q13.75929,12.729980000000001,14.12933,12.426300000000001Q14.499369999999999,12.12261,14.88386,11.83745Q15.26836,11.55229,15.66638,11.28634Q16.0644,11.020389999999999,16.475,10.77429Q16.88559,10.52819,17.3078,10.30254Q17.7299,10.07688,18.1627,9.872209999999999Q18.595399999999998,9.66754,19.0377,9.48435Q19.4799,9.30116,19.9306,9.13989Q20.3814,8.978622,20.839399999999998,8.839663Q21.2975,8.700705,21.7619,8.584389999999999Q22.2262,8.468076,22.695700000000002,8.374687Q23.1652,8.281298,23.6388,8.211058Q24.1123,8.140818,24.5887,8.0938978Q25.0651,8.0469772,25.5432,8.0234886Q26.0213,8,26.5,8Q26.9787,8,27.4568,8.0234886Q27.9349,8.0469772,28.4113,8.0938978Q28.8877,8.140818,29.3612,8.211058Q29.8348,8.281298,30.3043,8.374687Q30.7738,8.468076,31.2381,8.584389999999999Q31.7025,8.700705,32.1605,8.839663Q32.6186,8.978622,33.0693,9.13989Q33.5201,9.30116,33.9623,9.48435Q34.4046,9.66754,34.8373,9.872209999999999Q35.2701,10.07688,35.6922,10.30254Q36.1144,10.52819,36.525,10.77429Q36.9356,11.020389999999999,37.333600000000004,11.28634Q37.7316,11.55229,38.1161,11.83745Q38.5006,12.12261,38.8707,12.426300000000001Q39.2407,12.729980000000001,39.5954,13.051449999999999Q39.9501,13.37293,40.2886,13.71142Q40.6271,14.04991,40.9485,14.4046Q41.27,14.75929,41.5737,15.12933Q41.8774,15.499369999999999,42.1625,15.88386Q42.4477,16.26836,42.7136,16.66638Q42.9796,17.0644,43.2257,17.475Q43.4718,17.88559,43.6975,18.3078Q43.9231,18.7299,44.1278,19.1627Q44.3325,19.595399999999998,44.5156,20.0377Q44.6988,20.4799,44.8601,20.9306Q45.0214,21.3814,45.1603,21.839399999999998Q45.2993,22.2975,45.4156,22.7619Q45.5319,23.2262,45.6253,23.695700000000002Q45.7187,24.1652,45.7889,24.6388Q45.8592,25.1123,45.9061,25.5887Q45.953,26.0651,45.9765,26.5432Q46,27.0213,46,27.5Z" fill="#98EAC5" fill-opacity="0.5"/></g><g filter="url(#master_svg2_119_04482)"><path d="M25.842489999999998,17.0532853C28.1189,16.686522,30.2589,18.25201,30.6222,20.550069999999998C34.159,22.36788,36.027,26.37342,35.1613,30.2835L35.1614,30.2941C35.3922,30.4513,35.6068,30.631500000000003,35.802,30.831899999999997C37.4184,32.4911,37.3963,35.1589,35.752700000000004,36.7907C34.1092,38.422399999999996,31.4665,38.4,29.850099999999998,36.740899999999996C27.7016,37.6369,25.28885,37.6369,23.14033,36.740899999999996C22.94766,36.9373,22.7363,37.1142,22.50931,37.2688C20.59863,38.5706,18.00413,38.0623,16.714666,36.1333C15.425069,34.2044,15.9286313,31.5854,17.83931,30.2835C17.70751,29.6814,17.63759,29.0672,17.63067,28.4506C17.64088,25.13252,19.46806,22.091929999999998,22.37859,20.550069999999998C22.66303,18.75115,24.06042,17.340431,25.842489999999998,17.0532853ZM20.23947,31.6109C19.08679,31.6109,18.15234,32.5541,18.15234,33.7177C18.15234,34.8812,19.08685,35.8244,20.23947,35.8244C21.39201,35.8244,22.32639,34.8812,22.32639,33.7177C22.32639,32.5541,21.39208,31.6109,20.23947,31.6109ZM32.761399999999995,31.6109C31.6087,31.6109,30.6744,32.5541,30.6744,33.7177C30.6744,34.8812,31.608800000000002,35.8244,32.761399999999995,35.8244C33.914,35.8244,34.848299999999995,34.8812,34.8484,33.7177C34.8484,32.5541,33.914100000000005,31.6109,32.761399999999995,31.6109ZM30.3092,22.79379C29.8911,23.72784,29.149900000000002,24.47599,28.2247,24.898130000000002C26.124000000000002,25.85649,23.651510000000002,24.91441,22.70203,22.79379C20.53024,24.27541,19.40029,26.88912,19.80116,29.5041C19.94716,29.496000000000002,20.09347,29.496000000000002,20.23947,29.5041C22.5447,29.5041,24.41339,31.3905,24.41339,33.7177C24.405630000000002,34.1144,24.342399999999998,34.5081,24.225569999999998,34.8869C25.6996,35.3998,27.3012,35.3998,28.7753,34.8869C28.6584,34.5081,28.595100000000002,34.1144,28.5873,33.7177C28.5873,31.3905,30.456200000000003,29.5041,32.761399999999995,29.5041C32.9039,29.4964,33.0467,29.4964,33.1893,29.5041C33.2472,29.155900000000003,33.2786,28.8037,33.283100000000005,28.4506C33.2857,26.18301,32.171,24.06259,30.3092,22.79379ZM26.500500000000002,18.96995C25.34777,18.96995,24.41339,19.91327,24.41339,21.07683C24.41339,22.24045,25.347839999999998,23.18364,26.500500000000002,23.18364C27.653100000000002,23.18364,28.5873,22.240380000000002,28.5873,21.07683C28.5873,19.91327,27.653100000000002,18.96995,26.500500000000002,18.96995Z" fill="#FFFFFF" fill-opacity="1"/></g></g><g><rect x="0" y="0" width="50" height="50" rx="0" fill="#FFFFFF" fill-opacity="0"/></g></g></svg>