<svg xmlns="http://www.w3.org/2000/svg" xmlns:xlink="http://www.w3.org/1999/xlink" fill="none" version="1.1" width="50" height="50" viewBox="0 0 50 50"><defs><linearGradient x1="0.5" y1="0" x2="0.5" y2="1" id="master_svg0_119_05393"><stop offset="0%" stop-color="#FF1E61" stop-opacity="1"/><stop offset="100%" stop-color="#FFAAC3" stop-opacity="1"/></linearGradient><filter id="master_svg1_119_04553" filterUnits="objectBoundingBox" color-interpolation-filters="sRGB" x="0" y="0" width="37.165252685546875" height="37.024444580078125"><feFlood flood-opacity="0" result="BackgroundImageFix"/><feBlend mode="normal" in="SourceGraphic" in2="BackgroundImageFix" result="shape"/><feGaussianBlur in="BackgroundImage" stdDeviation="1"/><feComposite in2="SourceAlpha" operator="in" result="effect1_foregroundBlur"/><feBlend mode="normal" in="SourceGraphic" in2="effect1_foregroundBlur" result="shape"/></filter><filter id="master_svg2_119_04458" filterUnits="objectBoundingBox" color-interpolation-filters="sRGB" x="-6" y="-5" width="33.07583808898926" height="32.99701499938965"><feFlood flood-opacity="0" result="BackgroundImageFix"/><feColorMatrix in="SourceAlpha" type="matrix" values="0 0 0 0 0 0 0 0 0 0 0 0 0 0 0 0 0 0 127 0"/><feOffset dy="1" dx="0"/><feGaussianBlur stdDeviation="1.5"/><feColorMatrix type="matrix" values="0 0 0 0 1 0 0 0 0 0.4159291982650757 0 0 0 0 0.5892835855484009 0 0 0 1 0"/><feBlend mode="normal" in2="BackgroundImageFix" result="effect1_dropShadow"/><feBlend mode="normal" in="SourceGraphic" in2="effect1_dropShadow" result="shape"/></filter></defs><g><g><g><path d="M21.5625,2C11.27567,2.0162818,2.9614367,10.33887,3,20.5557C3.0389811,30.8206,11.3863,39.03,21.6053,39.0244C31.9167,38.9998,40.1832,30.6748,40.1651,20.4859C40.1468,10.23477,31.8125,1.983803,21.5625,2Z" fill="url(#master_svg0_119_05393)" fill-opacity="1"/></g><g style="opacity:0.8999999761581421;" filter="url(#master_svg1_119_04553)"><path d="M27.397244453430176,8.975561141967773C17.110414453430174,8.991842941967773,8.796181153430176,17.314431141967773,8.834744453430176,27.531261141967775C8.873725553430177,37.79616114196777,17.221044453430174,46.005561141967775,27.440044453430176,45.99996114196777C37.751444453430175,45.975361141967774,46.017944453430175,37.65036114196778,45.99984445343018,27.461461141967774C45.981544453430175,17.21033114196777,37.647244453430176,8.959364141967773,27.397244453430176,8.975561141967773Z" fill="#FFCDDC" fill-opacity="0.3700000047683716"/></g><g filter="url(#master_svg2_119_04458)"><path d="M38.680251382446286,28.607772811889646C38.392151382446286,28.87467281188965,38.049051382446294,29.01187281188965,37.652851382446286,29.011672811889646C36.43885138244629,29.01117281188965,35.22485138244629,29.01157281188965,34.01085138244629,29.01157281188965C32.77835138244629,29.01157281188965,31.54575138244629,29.01527281188965,30.31315138244629,29.00727281188965C30.144551382446288,29.00617281188965,30.11225138244629,29.054072811889647,30.11255138244629,29.21327281188965C30.11805138244629,31.63207281188965,30.117151382446288,34.05087281188965,30.11575138244629,36.46977281188965C30.11535138244629,37.10457281188965,29.74005138244629,37.65067281188965,29.15575138244629,37.879172811889646C28.58185138244629,38.10357281188965,27.92959138244629,37.959172811889644,27.50198138244629,37.50507281188965C27.222921382446287,37.20887281188965,27.09207138244629,36.85377281188965,27.09240138244629,36.44567281188965C27.09448138244629,34.03297281188965,27.091251382446288,31.62027281188965,27.09798138244629,29.207672811889648C27.09846138244629,29.03777281188965,27.050801382446288,29.00767281188965,26.892331382446287,29.007972811889648C24.464371382446288,29.013172811889646,22.03641138244629,29.012472811889648,19.60844138244629,29.010972811889648C18.91340638244629,29.01057281188965,18.306137382446288,28.54727281188965,18.13937568244629,27.898172811889648C17.96488338244629,27.21877281188965,18.25409438244629,26.537242811889648,18.866605382446288,26.18994281188965C19.10292138244629,26.055912811889648,19.35819138244629,25.99873281188965,19.630751382446288,25.998952811889648C22.046291382446288,26.000732811889648,24.46191138244629,25.997732811889648,26.87746138244629,26.004512811889647C27.05894138244629,26.005062811889648,27.09824138244629,25.95921281188965,27.09775138244629,25.78234281188965C27.09129138244629,23.357352811889648,27.092661382446288,20.932322811889648,27.09385138244629,18.507332811889647C27.09422138244629,17.74098781188965,27.631901382446287,17.11951981188965,28.388951382446287,17.00326931188965C29.11335138244629,16.892056011889647,29.820451382446286,17.33653881188965,30.048651382446288,18.046072811889648C30.10205138244629,18.21232281188965,30.11725138244629,18.38264281188965,30.117151382446288,18.55662281188965C30.11595138244629,20.969322811889647,30.11845138244629,23.38198281188965,30.11185138244629,25.79463281188965C30.111351382446287,25.969882811889647,30.16245138244629,26.003842811889648,30.32695138244629,26.00354281188965C32.76735138244629,25.99836281188965,35.20775138244629,25.99928281188965,37.64805138244629,26.00051281188965C38.280351382446284,26.00080281188965,38.827451382446284,26.375732811889648,39.06095138244629,26.961172811889647C39.28695138244629,27.527672811889648,39.13805138244629,28.183772811889646,38.680251382446286,28.607772811889646Z" fill="#FFFFFF" fill-opacity="1"/></g></g><g><rect x="0" y="0" width="50" height="50" rx="0" fill="#FFFFFF" fill-opacity="0"/></g></g></svg>