<svg xmlns="http://www.w3.org/2000/svg" xmlns:xlink="http://www.w3.org/1999/xlink" fill="none" version="1.1" width="50" height="50" viewBox="0 0 50 50"><defs><linearGradient x1="0.5" y1="0" x2="0.5" y2="1" id="master_svg0_143_13862"><stop offset="0%" stop-color="#46C284" stop-opacity="1"/><stop offset="100%" stop-color="#AFE1C8" stop-opacity="1"/></linearGradient><filter id="master_svg1_143_13855" filterUnits="objectBoundingBox" color-interpolation-filters="sRGB" x="0" y="0" width="42.85713577270508" height="32.14285659790039"><feFlood flood-opacity="0" result="BackgroundImageFix"/><feBlend mode="normal" in="SourceGraphic" in2="BackgroundImageFix" result="shape"/><feGaussianBlur in="BackgroundImage" stdDeviation="1"/><feComposite in2="SourceAlpha" operator="in" result="effect1_foregroundBlur"/><feBlend mode="normal" in="SourceGraphic" in2="effect1_foregroundBlur" result="shape"/></filter><filter id="master_svg2_143_13863" filterUnits="objectBoundingBox" color-interpolation-filters="sRGB" x="-6" y="-5" width="31.642852783203125" height="31.64285659790039"><feFlood flood-opacity="0" result="BackgroundImageFix"/><feColorMatrix in="SourceAlpha" type="matrix" values="0 0 0 0 0 0 0 0 0 0 0 0 0 0 0 0 0 0 127 0"/><feOffset dy="1" dx="0"/><feGaussianBlur stdDeviation="1.5"/><feColorMatrix type="matrix" values="0 0 0 0 0.23374947905540466 0 0 0 0 0.7440476417541504 0 0 0 0 0.48667991161346436 0 0 0 1 0"/><feBlend mode="normal" in2="BackgroundImageFix" result="effect1_dropShadow"/><feBlend mode="normal" in="SourceGraphic" in2="effect1_dropShadow" result="shape"/></filter><clipPath id="master_svg3_143_13863"><rect x="14.285712122917175" y="21.428564071655273" width="19.642852783203125" height="19.64285659790039" rx="0"/></clipPath></defs><g><g><rect x="0" y="0" width="49.99999237060547" height="50" rx="0" fill="#FFFFFF" fill-opacity="0"/></g><g><g transform="matrix(0.9359305500984192,-0.3521847128868103,0.30123645067214966,0.9535495042800903,-4.034672662223009,3.1074127025463056)"><rect x="6.864165186882019" y="14.853633880615234" width="37.1053352355957" height="27.911029815673828" rx="3" fill="url(#master_svg0_143_13862)" fill-opacity="1"/></g><g transform="matrix(1,-2.8174699906458045e-8,2.8174699906458045e-8,1,-4.0249552113458265e-7,5.0311957267012986e-8)" style="opacity:0.8999999761581421;" filter="url(#master_svg1_143_13855)"><rect x="1.785714030265808" y="14.285707473754883" width="42.85713577270508" height="32.14285659790039" rx="3" fill="#CEEDDE" fill-opacity="0.4399999976158142"/><rect x="1.785714030265808" y="14.285707473754883" width="42.85713577270508" height="32.14285659790039" rx="3" fill-opacity="0" stroke-opacity="0.5400000071525568" stroke="#FFFFFF" fill="none" stroke-width="0.20000000298023224"/></g><g filter="url(#master_svg2_143_13863)"><g clip-path="url(#master_svg3_143_13863)"><g><path d="M31.595061341667176,32.38063164978027L25.230751341667176,32.38063164978027L25.230751341667176,38.745981649780276C25.230751341667176,39.36628164978028,24.727671341667175,39.86888164978028,24.107351341667176,39.86888164978028C23.487041341667176,39.86888164978028,22.983961341667175,39.36628164978028,22.983961341667175,38.745981649780276L22.983961341667175,32.38063164978027L16.619561341667175,32.38063164978027C15.998742341667175,32.38063164978027,15.496161341667175,31.878051649780275,15.496161341667175,31.257731649780276C15.496161341667175,30.637651649780274,15.998799341667175,30.134841649780274,16.619561341667175,30.134841649780274L22.983921341667177,30.134841649780274L22.983921341667177,23.769461649780272C22.983921341667177,23.149392649780275,23.487001341667174,22.646581649780273,24.107311341667177,22.646581649780273C24.727631341667177,22.646581649780273,25.230711341667174,23.149411649780273,25.230711341667174,23.769461649780272L25.230711341667174,30.134861649780273L31.595061341667176,30.134861649780273C32.21586134166718,30.134861649780273,32.71846134166718,30.637651649780274,32.71846134166718,31.257711649780273C32.71846134166718,31.878011649780273,32.215961341667175,32.38057164978027,31.595061341667176,32.38063164978027L31.595061341667176,32.38063164978027Z" fill="#FFFFFF" fill-opacity="1"/><path d="M32.566361341667175,32.228561649780275Q32.96846134166718,31.826551649780274,32.96846134166718,31.257721649780272Q32.96846134166718,30.689021649780273,32.566361341667175,30.286971649780273Q32.164161341667175,29.884861649780273,31.595061341667176,29.884861649780273L25.480711341667174,29.884861649780273L25.480711341667174,23.769461649780272Q25.480711341667174,23.200839649780274,25.078361341667176,22.798685649780275Q24.676071341667175,22.396581649780273,24.107311341667177,22.396581649780273Q23.538551341667173,22.396581649780273,23.136271341667175,22.798677649780274Q22.733921341667177,23.200831649780273,22.733921341667177,23.769461649780272L22.733921341667177,29.884841649780274L16.619561341667175,29.884841649780274Q16.050523341667176,29.884841649780274,15.648318341667176,30.286961649780274Q15.246161341667175,30.689031649780276,15.246161341667175,31.257731649780276Q15.246161341667175,31.826591649780273,15.648305341667175,32.22860164978027Q16.050456341667175,32.63063164978027,16.619561341667175,32.63063164978027L22.733961341667175,32.63063164978027L22.733961341667175,38.745981649780276Q22.733961341667175,39.31478164978027,23.136321341667177,39.71688164978028Q23.538571341667176,40.11888164978028,24.107351341667176,40.11888164978028Q24.676141341667176,40.11888164978028,25.078391341667174,39.71688164978028Q25.480751341667176,39.31478164978027,25.480751341667176,38.745981649780276L25.480751341667176,32.63063164978027L31.595161341667175,32.63063164978027Q32.16426134166717,32.630581649780275,32.566361341667175,32.228561649780275ZM32.21286134166718,30.640561649780274Q32.46846134166718,30.896161649780275,32.46846134166718,31.257711649780273Q32.46846134166718,31.619401649780272,32.21286134166718,31.874961649780275Q31.957161341667174,32.130601649780274,31.595061341667176,32.13063164978027L24.980751341667176,32.13063164978027L24.980751341667176,38.745981649780276Q24.980751341667176,39.10758164978027,24.724951341667175,39.363281649780276Q24.469131341667175,39.61888164978028,24.107351341667176,39.61888164978028Q23.745581341667176,39.61888164978028,23.489761341667176,39.363281649780276Q23.233961341667175,39.10758164978027,23.233961341667175,38.745981649780276L23.233961341667175,32.13063164978027L16.619561341667175,32.13063164978027Q16.257517341667175,32.13063164978027,16.001804341667174,31.875001649780273Q15.746161341667175,31.619431649780275,15.746161341667175,31.257731649780276Q15.746161341667175,30.89617164978027,16.001834341667177,30.640551649780274Q16.257598341667176,30.384841649780274,16.619561341667175,30.384841649780274L23.233921341667177,30.384841649780274L23.233921341667177,23.769461649780272Q23.233921341667177,23.408007649780274,23.489741341667177,23.152314649780273Q23.745591341667176,22.896581649780273,24.107311341667177,22.896581649780273Q24.469031341667176,22.896581649780273,24.724891341667174,23.152321649780273Q24.980711341667174,23.408015649780275,24.980711341667174,23.769461649780272L24.980711341667174,30.384861649780273L31.595061341667176,30.384861649780273Q31.957061341667174,30.384861649780273,32.21286134166718,30.640561649780274Z" fill-rule="evenodd" fill="#FFFFFF" fill-opacity="1"/></g></g></g></g></g></svg>