<svg xmlns="http://www.w3.org/2000/svg" xmlns:xlink="http://www.w3.org/1999/xlink" fill="none" version="1.1" width="50" height="50" viewBox="0 0 50 50"><defs><linearGradient x1="0.5" y1="0" x2="0.5" y2="1" id="master_svg0_143_13897"><stop offset="0%" stop-color="#FD5966" stop-opacity="1"/><stop offset="100%" stop-color="#F8B3BB" stop-opacity="1"/></linearGradient><filter id="master_svg1_143_13890" filterUnits="objectBoundingBox" color-interpolation-filters="sRGB" x="0" y="0" width="35.71428680419922" height="39.28571319580078"><feFlood flood-opacity="0" result="BackgroundImageFix"/><feBlend mode="normal" in="SourceGraphic" in2="BackgroundImageFix" result="shape"/><feGaussianBlur in="BackgroundImage" stdDeviation="1"/><feComposite in2="SourceAlpha" operator="in" result="effect1_foregroundBlur"/><feBlend mode="normal" in="SourceGraphic" in2="effect1_foregroundBlur" result="shape"/></filter><filter id="master_svg2_143_13885" filterUnits="objectBoundingBox" color-interpolation-filters="sRGB" x="-6" y="-5" width="33.428571701049805" height="38.785818099975586"><feFlood flood-opacity="0" result="BackgroundImageFix"/><feColorMatrix in="SourceAlpha" type="matrix" values="0 0 0 0 0 0 0 0 0 0 0 0 0 0 0 0 0 0 127 0"/><feOffset dy="1" dx="0"/><feGaussianBlur stdDeviation="1.5"/><feColorMatrix type="matrix" values="0 0 0 0 1 0 0 0 0 0.4247787594795227 0 0 0 0 0.4712252616882324 0 0 0 1 0"/><feBlend mode="normal" in2="BackgroundImageFix" result="effect1_dropShadow"/><feBlend mode="normal" in="SourceGraphic" in2="effect1_dropShadow" result="shape"/></filter></defs><g><g><rect x="0" y="0" width="50" height="50" rx="0" fill="#FFFFFF" fill-opacity="0"/></g><g><g><path d="M34.276928537368775,9.225714268684388L31.465928537368775,6.078024268684387L29.062528537368774,3.5435842686843873C28.050628537368773,2.4262822686843872,26.577828537368774,1.784461988684387,25.028628537368775,1.7857142686843668L8.914238537368774,1.7857142686843668C7.497158537368774,1.7857142686843668,6.138118537368774,2.3219532686843873,5.136128537368775,3.2764442686843873C4.1341455373687745,4.230944268684388,3.571428537368753,5.525504268684387,3.571428537368753,6.8753042686843875L3.571428537368753,30.62511426868439C3.571428537368753,33.43581426868438,5.963488537368774,35.71431426868439,8.914238537368774,35.71431426868439L30.371428537368775,35.71431426868439C31.788428537368773,35.71431426868439,33.147428537368775,35.17811426868439,34.14942853736878,34.22371426868439C35.15142853736877,33.26931426868438,35.71432853736877,31.974914268684387,35.71432853736877,30.62511426868439L35.71432853736877,12.597414268684387C35.69392853736878,11.342024268684387,35.18112853736878,10.139284268684387,34.276928537368775,9.225714268684388Z" fill="url(#master_svg0_143_13897)" fill-opacity="1"/></g><g style="opacity:0.8999999761581421;" filter="url(#master_svg1_143_13890)"><path d="M44.83148561210632,17.543311343421934L41.70818561210632,13.898611343421937L39.03778561210632,10.964001343421936C37.913385612106325,9.670281343421935,36.27698561210632,8.927121333421937,34.55568561210632,8.928571343421913L16.650745612106324,8.928571343421913C15.076205612106323,8.928571343421913,13.566165612106323,9.549479343421936,12.452845612106323,10.654681343421936C11.339527612106323,11.759891343421936,10.7142856121063,13.258851343421936,10.7142856121063,14.821771343421936L10.7142856121063,42.32157134342194C10.7142856121063,45.57607134342194,13.372125612106323,48.214271343421935,16.650745612106324,48.214271343421935L40.49208561210632,48.214271343421935C42.06658561210632,48.214271343421935,43.576485612106325,47.59347134342194,44.68978561210632,46.48837134342194C45.80308561210632,45.38327134342194,46.428585612106325,43.884471343421936,46.428585612106325,42.32157134342194L46.428585612106325,21.447471343421938C46.405885612106324,19.993771343421937,45.83618561210632,18.601121343421937,44.83148561210632,17.543311343421934Z" fill="#FFC4CA" fill-opacity="0.2800000011920929"/><path d="M46.528585612106326,42.32157134342194L46.528585612106326,21.447471343421938L46.528585612106326,21.445871343421935Q46.492785612106324,19.14847134342194,44.90578561210632,17.476301343421937L41.78308561210632,13.832411343421935L39.113285612106324,10.898381343421937L39.111785612106324,10.896701343421936Q38.25468561210633,9.911195343421936,37.06188561210632,9.369546343421936Q35.86818561210632,8.827465343421936,34.55558561210633,8.828571343421936L16.650745612106324,8.828571343421936Q14.150415612106324,8.828571443421936,12.382395612106324,10.583711343421935Q10.614287112106323,12.338941343421936,10.614285612106324,14.821771343421936L10.614285612106324,42.32157134342194Q10.614285712106323,44.80407134342194,12.382585612106324,46.55937134342194Q14.150545612106324,48.314271343421936,16.650745612106324,48.314271343421936L40.49208561210632,48.314271343421936Q42.99228561210632,48.314271343421936,44.76028561210632,46.55937134342194Q46.528585612106326,44.80407134342194,46.528585612106326,42.32157134342194ZM46.32858561210632,21.447471343421938L46.32858561210632,21.448271343421936L46.32858561210632,42.32157134342194Q46.32858561210632,44.72077134342194,44.61938561210632,46.417371343421934Q42.90988561210632,48.11427134342193,40.49208561210632,48.11427134342193L16.650745612106324,48.11427134342193Q14.232955612106323,48.11427134342193,12.523485612106324,46.417371343421934Q10.814285512106323,44.72077134342194,10.814285612106323,42.32157134342194L10.814285612106323,14.821771343421936Q10.814287612106323,12.422211343421935,12.523295612106324,10.725651343421935Q14.232835612106323,9.028571343421936,16.650745612106324,9.028571343421936L34.55578561210632,9.028570843421935Q35.824985612106325,9.027501743421936,36.97918561210632,9.551648343421936Q38.13328561210632,10.075751343421937,38.96228561210633,11.029601343421936L38.963085612106326,11.030461343421937L41.633185612106324,13.964801343421936L41.63418561210632,13.965921343421936L44.757185612106326,17.610331343421937L44.75898561210632,17.612181343421938Q46.29348561210632,19.227771343421935,46.32858561210632,21.447471343421938Z" fill-rule="evenodd" fill="#FFFFFF" fill-opacity="0.5"/></g><g filter="url(#master_svg2_143_13885)"><path d="M35.03707193946838,29.90238596973419L28.471451939468384,36.85118596973419C28.09811193946838,37.25428596973419,27.533451939468385,37.49238596973419,26.933191939468383,37.499885969734194C26.338041939468383,37.50818596973419,25.768051939468386,37.29428596973419,25.371311939468384,36.91378596973419L21.808034939468385,33.43938596973419C21.205231939468383,32.71848596973419,21.332825539468384,31.72388596973419,22.103974939468383,31.13248596973419C22.875121939468382,30.54118596973419,24.041991939468385,30.543185969734193,24.810391939468385,31.13718596973419L26.788161939468385,33.06258596973419L31.889171939468383,27.72538596973419C32.26217193946839,27.10648596973419,33.030271939468385,26.738485969734192,33.84047193946839,26.79068596973419C34.65067193946838,26.84298596973419,35.34607193946839,27.305285969734193,35.60697193946838,27.965085969734194C35.86787193946839,28.62488596973419,35.64367193946838,29.354485969734192,35.03767193946838,29.81848596973419L35.03707193946838,29.90238596973419ZM36.30967193946839,21.428585969734193C34.99467193946838,21.428585969734193,33.928571939468384,20.229535969734194,33.928571939468384,18.75045596973419L33.928571939468384,10.714285969734192L42.85717193946839,21.426185969734192L36.30967193946839,21.428585969734193Z" fill="#FFFFFF" fill-opacity="1"/></g></g></g></svg>
