<svg xmlns="http://www.w3.org/2000/svg" xmlns:xlink="http://www.w3.org/1999/xlink" fill="none" version="1.1" width="50" height="50" viewBox="0 0 50 50"><defs><linearGradient x1="0.5" y1="0" x2="0.5" y2="1" id="master_svg0_143_13827"><stop offset="0%" stop-color="#FF7527" stop-opacity="1"/><stop offset="100%" stop-color="#FFAC90" stop-opacity="1"/></linearGradient><filter id="master_svg1_143_13820" filterUnits="objectBoundingBox" color-interpolation-filters="sRGB" x="0" y="0" width="33.788936614990234" height="36.001712799072266"><feFlood flood-opacity="0" result="BackgroundImageFix"/><feBlend mode="normal" in="SourceGraphic" in2="BackgroundImageFix" result="shape"/><feGaussianBlur in="BackgroundImage" stdDeviation="1"/><feComposite in2="SourceAlpha" operator="in" result="effect1_foregroundBlur"/><feBlend mode="normal" in="SourceGraphic" in2="effect1_foregroundBlur" result="shape"/></filter><filter id="master_svg2_143_13817" filterUnits="objectBoundingBox" color-interpolation-filters="sRGB" x="-6" y="-5" width="30.3991641998291" height="25.3627290725708"><feFlood flood-opacity="0" result="BackgroundImageFix"/><feColorMatrix in="SourceAlpha" type="matrix" values="0 0 0 0 0 0 0 0 0 0 0 0 0 0 0 0 0 0 127 0"/><feOffset dy="1" dx="0"/><feGaussianBlur stdDeviation="1.5"/><feColorMatrix type="matrix" values="0 0 0 0 0.9107142686843872 0 0 0 0 0.3681371510028839 0 0 0 0 0.06850505620241165 0 0 0 1 0"/><feBlend mode="normal" in2="BackgroundImageFix" result="effect1_dropShadow"/><feBlend mode="normal" in="SourceGraphic" in2="effect1_dropShadow" result="shape"/></filter></defs><g><g><rect x="0" y="0" width="50" height="50" rx="0" fill="#FFFFFF" fill-opacity="0"/></g><g><g><path d="M30.005342448425292,3.571428537368799L9.276872448425292,3.571428537368799C7.113522448425293,3.571428537368799,5.357142448425293,5.328128537368775,5.357142448425293,7.491878537368775L5.357142448425293,30.430828537368775C5.357142448425293,35.47592853736877,9.458932448425294,39.573128537368774,14.497822448425293,39.573128537368774L35.22634244842529,39.573128537368774C37.38964244842529,39.573128537368774,39.14604244842529,37.81642853736877,39.14604244842529,35.65272853736877L39.14604244842529,12.713788537368774C39.15144244842529,7.673978537368774,35.04964244842529,3.571428537368799,30.005342448425292,3.571428537368799Z" fill-rule="evenodd" fill="url(#master_svg0_143_13827)" fill-opacity="1"/></g><g style="opacity:0.8999999761581421;" filter="url(#master_svg1_143_13820)"><path d="M37.287834609222415,10.426859140396118L16.559364609222413,10.426859140396118C14.396014609222412,10.426859140396118,12.639634609222412,12.183559140396119,12.639634609222412,14.347309140396119L12.639634609222412,37.28625914039612C12.639634609222412,42.33135914039612,16.741424609222413,46.42855914039612,21.780314609222412,46.42855914039612L42.50883460922241,46.42855914039612C44.67213460922241,46.42855914039612,46.42853460922241,44.671859140396116,46.42853460922241,42.50815914039612L46.42853460922241,19.569219140396118C46.43393460922241,14.529409140396119,42.33213460922241,10.426859140396118,37.287834609222415,10.426859140396118Z" fill="#FFC8A9" fill-opacity="0.38999998569488525"/><path d="M46.52853460922241,19.569319140396118L46.52853460922241,19.569219140396118Q46.530534609222414,17.692649140396117,45.80403460922241,15.975589140396117Q45.10253460922241,14.317649140396117,43.822534609222416,13.037409140396118Q42.54263460922241,11.757189140396118,40.88393460922241,11.054551140396118Q39.16613460922241,10.326859140396119,37.287834609222415,10.326859140396119L16.559364609222413,10.326859140396119Q14.895424609222413,10.326859240396118,13.717524609222412,11.504979140396118Q12.539634609222412,12.683079140396117,12.539635109222413,14.347309140396119L12.539634609222412,37.28625914039612Q12.539634609222412,39.16465914039612,13.267193609222412,40.88215914039612Q13.969624609222413,42.54035914039612,15.249694609222413,43.82005914039612Q16.52949460922241,45.09955914039612,18.187304609222412,45.80165914039612Q19.903774609222413,46.52855914039612,21.780314609222412,46.52855914039612L42.50883460922241,46.52855914039612Q44.17273460922242,46.52855914039612,45.35063460922241,45.35045914039612Q46.52853460922241,44.17235914039612,46.52853460922241,42.50815914039612L46.52853460922241,19.569319140396118ZM45.619834609222416,16.05351914039612Q46.33053460922241,17.73315914039612,46.32853460922241,19.56910914039612L46.32853460922241,42.50815914039612Q46.32863460922241,44.08955914039612,45.20923460922241,45.20905914039612Q44.08993460922241,46.328559140396116,42.50883460922241,46.328559140396116L21.780314609222412,46.328559140396116Q19.94438460922241,46.328559140396116,18.26530460922241,45.61745914039612Q16.64334460922241,44.93055914039612,15.391094609222412,43.67865914039612Q14.138594609222412,42.42645914039612,13.451350609222413,40.80415914039612Q12.739634609222412,39.12405914039611,12.739634609222412,37.28625914039612L12.739634609222412,14.347309140396119Q12.739634609222412,12.765919140396118,13.858964609222411,11.646379140396117Q14.978284609222412,10.526859140396118,16.559364609222413,10.526859140396118L37.287834609222415,10.526859140396118Q39.12543460922241,10.526859140396118,40.80593460922241,11.238708140396119Q42.428634609222414,11.926149140396118,43.68113460922241,13.178809140396119Q44.93353460922241,14.431479140396117,45.619834609222416,16.05351914039612Z" fill-rule="evenodd" fill="#FFFFFF" fill-opacity="0.4399999976158142"/></g><g filter="url(#master_svg2_143_13817)"><path d="M30.492649903869626,34.99925495643616L22.05879990386963,34.99925495643616C21.10564390386963,34.99925495643616,20.33454990386963,34.228054956436154,20.33454990386963,33.274754956436155C20.33454990386963,32.32135495643615,21.10564390386963,31.544794956436156,22.05879990386963,31.544794956436156L30.492649903869626,31.544794956436156C31.44584990386963,31.544794956436156,32.21694990386963,32.31605495643616,32.21694990386963,33.274754956436155C32.22224990386963,34.22265495643616,31.44584990386963,34.99925495643616,30.492649903869626,34.99925495643616ZM37.00944990386963,25.085694956436157L22.05879990386963,25.085694956436157C21.10564390386963,25.085694956436157,20.33454990386963,24.31445495643616,20.33454990386963,23.361124956436157C20.33454990386963,22.407791956436157,21.10564390386963,21.636554956436157,22.05879990386963,21.636554956436157L37.00944990386963,21.636554956436157C37.96264990386963,21.636554956436157,38.73374990386963,22.407791956436157,38.73374990386963,23.361124956436157C38.73374990386963,24.31445495643616,37.96264990386963,25.085694956436157,37.00944990386963,25.085694956436157Z" fill="#FFFFFF" fill-opacity="1"/></g></g></g></svg>