<svg xmlns="http://www.w3.org/2000/svg" xmlns:xlink="http://www.w3.org/1999/xlink" fill="none" version="1.1" width="50" height="50" viewBox="0 0 50 50"><defs><linearGradient x1="0.5" y1="0" x2="0.5" y2="1" id="master_svg0_119_08040"><stop offset="0%" stop-color="#0E66FF" stop-opacity="1"/><stop offset="100%" stop-color="#90B9FF" stop-opacity="1"/></linearGradient><filter id="master_svg1_119_07458" filterUnits="objectBoundingBox" color-interpolation-filters="sRGB" x="0" y="0" width="38" height="38"><feFlood flood-opacity="0" result="BackgroundImageFix"/><feBlend mode="normal" in="SourceGraphic" in2="BackgroundImageFix" result="shape"/><feGaussianBlur in="BackgroundImage" stdDeviation="1"/><feComposite in2="SourceAlpha" operator="in" result="effect1_foregroundBlur"/><feBlend mode="normal" in="SourceGraphic" in2="effect1_foregroundBlur" result="shape"/></filter><filter id="master_svg2_119_08705" filterUnits="objectBoundingBox" color-interpolation-filters="sRGB" x="-6" y="-5" width="30.654394149780273" height="29.963680267333984"><feFlood flood-opacity="0" result="BackgroundImageFix"/><feColorMatrix in="SourceAlpha" type="matrix" values="0 0 0 0 0 0 0 0 0 0 0 0 0 0 0 0 0 0 127 0"/><feOffset dy="1" dx="0"/><feGaussianBlur stdDeviation="1.5"/><feColorMatrix type="matrix" values="0 0 0 0 0.27981457114219666 0 0 0 0 0.5393139719963074 0 0 0 0 0.988095223903656 0 0 0 1 0"/><feBlend mode="normal" in2="BackgroundImageFix" result="effect1_dropShadow"/><feBlend mode="normal" in="SourceGraphic" in2="effect1_dropShadow" result="shape"/></filter></defs><g><g><g><path d="M3,22C3.0862227,15.7023,4.17993,10.48778,7.37782,7.37782C10.48778,4.17993,15.7023,3.0862227,22,3C28.2977,3.0862227,33.5122,4.17993,36.6222,7.37782C39.8201,10.48778,40.9138,15.7023,41,22C40.9138,28.2977,39.8201,33.5122,36.6222,36.6222C33.5122,39.8201,28.2977,40.9138,22,41C15.7023,40.9138,10.48778,39.8201,7.37782,36.6222C4.17993,33.5122,3.0862227,28.2977,3,22Z" fill="url(#master_svg0_119_08040)" fill-opacity="1"/></g><g style="opacity:0.8999999761581421;" filter="url(#master_svg1_119_07458)"><path d="M9,28C9.0862227,21.7023,10.17993,16.48778,13.37782,13.37782C16.48778,10.17993,21.7023,9.0862227,28,9C34.2977,9.0862227,39.5122,10.17993,42.6222,13.37782C45.8201,16.48778,46.9138,21.7023,47,28C46.9138,34.2977,45.8201,39.5122,42.6222,42.6222C39.5122,45.8201,34.2977,46.9138,28,47C21.7023,46.9138,16.48778,45.8201,13.37782,42.6222C10.17993,39.5122,9.0862227,34.2977,9,28Z" fill="#90B9FF" fill-opacity="0.3100000023841858"/></g><g filter="url(#master_svg2_119_08705)"><path d="M21.05229,36.6362515625C19.923259,36.6362515625,19,35.6890515625,19,34.5316515625L19,24.8446515625C19,23.6868115625,19.92368,22.739991562500002,21.05229,22.739991562500002C22.18133,22.739991562500002,23.10459,23.6872415625,23.10459,24.8446515625L23.10459,34.5316515625C23.10501,35.6890515625,22.18133,36.6362515625,21.05229,36.6362515625ZM28.327199999999998,36.6364515625C27.19816,36.6364515625,26.2749,35.689251562500004,26.2749,34.5318515625L26.2749,20.7775115625C26.2749,19.6196695625,27.19858,18.6728515625,28.327199999999998,18.6728515625C29.456200000000003,18.6728515625,30.3795,19.6201005625,30.3795,20.7775115625L30.3795,34.5313515625C30.3795,35.689251562500004,29.456200000000003,36.6364515625,28.327199999999998,36.6364515625ZM35.6021,36.6365515625C34.4731,36.6365515625,33.5498,35.689251562500004,33.5498,34.5318515625L33.5498,28.566571562500002C33.5498,27.4087315625,34.4735,26.4619115625,35.6021,26.4619115625C36.7311,26.4619115625,37.654399999999995,27.4091615625,37.654399999999995,28.566571562500002L37.654399999999995,34.5318515625C37.654399999999995,35.689251562500004,36.7307,36.6365515625,35.6021,36.6365515625Z" fill="#FFFFFF" fill-opacity="1"/></g></g><g><rect x="0" y="0" width="50" height="50" rx="0" fill="#FFFFFF" fill-opacity="0"/></g></g></svg>