<svg xmlns="http://www.w3.org/2000/svg" xmlns:xlink="http://www.w3.org/1999/xlink" fill="none" version="1.1" width="50" height="50" viewBox="0 0 50 50"><defs><linearGradient x1="0.5" y1="0" x2="0.5" y2="1" id="master_svg0_119_05982"><stop offset="0%" stop-color="#FF9200" stop-opacity="1"/><stop offset="100%" stop-color="#FFC67A" stop-opacity="1"/></linearGradient><filter id="master_svg1_119_05794" filterUnits="objectBoundingBox" color-interpolation-filters="sRGB" x="0" y="0" width="34.5945930480957" height="38.57142639160156"><feFlood flood-opacity="0" result="BackgroundImageFix"/><feBlend mode="normal" in="SourceGraphic" in2="BackgroundImageFix" result="shape"/><feGaussianBlur in="BackgroundImage" stdDeviation="1"/><feComposite in2="SourceAlpha" operator="in" result="effect1_foregroundBlur"/><feBlend mode="normal" in="SourceGraphic" in2="effect1_foregroundBlur" result="shape"/></filter><filter id="master_svg2_119_04472" filterUnits="objectBoundingBox" color-interpolation-filters="sRGB" x="-6" y="-5" width="29.893754959106445" height="29.49631690979004"><feFlood flood-opacity="0" result="BackgroundImageFix"/><feColorMatrix in="SourceAlpha" type="matrix" values="0 0 0 0 0 0 0 0 0 0 0 0 0 0 0 0 0 0 127 0"/><feOffset dy="1" dx="0"/><feGaussianBlur stdDeviation="1.5"/><feColorMatrix type="matrix" values="0 0 0 0 0.9821428656578064 0 0 0 0 0.6371207237243652 0 0 0 0 0.17817635834217072 0 0 0 1 0"/><feBlend mode="normal" in2="BackgroundImageFix" result="effect1_dropShadow"/><feBlend mode="normal" in="SourceGraphic" in2="effect1_dropShadow" result="shape"/></filter></defs><g><g><g><path d="M37.1212,9.819849999999999L24.7927,2.672017C24.0768,2.249517,23.2161,2,22.2973,2C21.3785,2,20.517699999999998,2.249517,19.7783,2.6848229999999997L7.4965399999999995,9.80735C5.993891,10.69043,5.00045371,12.3041,5,14.1509L5,28.4211C5.000680566,30.268,5.994344,31.8815,7.473520000000001,32.751599999999996L19.8019,39.8994C20.517699999999998,40.3219,21.3785,40.5714,22.2973,40.5714C23.2161,40.5714,24.0769,40.3219,24.8163,39.8866L37.0981,32.7641C38.6007,31.881,39.5941,30.2673,39.5946,28.4205L39.5946,14.1504C39.5939,12.3035,38.6003,10.68997,37.1212,9.819849999999999Z" fill="url(#master_svg0_119_05982)" fill-opacity="1"/></g><g style="opacity:0.8999999761581421;" filter="url(#master_svg1_119_05794)"><path d="M42.526605044555666,16.248421224212645L30.198105044555664,9.100588224212647C29.482205044555663,8.678088224212647,28.621505044555665,8.428571224212646,27.702705044555664,8.428571224212646C26.783905044555663,8.428571224212646,25.923105044555662,8.678088224212647,25.183705044555666,9.113394224212646L12.901945044555664,16.235921224212646C11.399296044555664,17.119001224212646,10.405858754555664,18.732671224212645,10.405405044555664,20.579471224212647L10.405405044555664,34.84967122421264C10.406085610555664,36.69657122421265,11.399749044555664,38.31007122421265,12.878925044555665,39.18017122421264L25.207305044555664,46.32797122421265C25.923105044555662,46.750471224212646,26.783905044555663,46.99997122421264,27.702705044555664,46.99997122421264C28.621505044555665,46.99997122421264,29.482305044555662,46.750471224212646,30.221705044555662,46.31517122421265L42.503505044555666,39.192671224212646C44.00610504455567,38.30957122421265,44.99950504455566,36.695871224212645,45.000005044555664,34.84907122421265L45.000005044555664,20.578971224212644C44.99930504455566,18.732071224212646,44.00570504455566,17.11854122421265,42.526605044555666,16.248421224212645Z" fill="#FFD9A6" fill-opacity="0.4699999988079071"/></g><g filter="url(#master_svg2_119_04472)"><path d="M36.44320596923828,21.681829080200195L29.711305969238282,35.162529080200194C29.37860596923828,35.81552908020019,28.69392596923828,36.2635290802002,27.90334596923828,36.2635290802002C27.83556596923828,36.2635290802002,27.768435969238283,36.260329080200194,27.719075969238283,36.25382908020019C27.652905969238283,36.260329080200194,27.58584596923828,36.2635290802002,27.517945969238284,36.2635290802002C26.72736596923828,36.2635290802002,26.042725969238283,35.81552908020019,25.704725969238282,35.151029080200196L18.983456969238283,21.693009080200195C18.83798406923828,21.416809080200196,18.75580596923828,21.102949080200194,18.75580596923828,20.770059080200195C18.75580596923828,19.663907080200197,19.663528969238282,18.767229080200195,20.783355969238283,18.767229080200195C21.58744596923828,18.767229080200195,22.28210596923828,19.229520080200196,22.615305969238282,19.911639080200196L27.70345596923828,30.115529080200197L32.79450596923828,19.900039080200195C33.12720596923828,19.243245080200197,33.81460596923828,18.792328280200195,34.60880596923828,18.792328280200195C34.93470596923828,18.792328280200195,35.24270596923828,18.868309080200195,35.503805969238286,18.998015080200194L35.51570596923828,19.003209080200197C36.18730596923828,19.329539080200195,36.64960596923828,20.012189080200194,36.64960596923828,20.801459080200196C36.64960596923828,21.121949080200196,36.57330596923828,21.424849080200197,36.44320596923828,21.681829080200195Z" fill="#FFFFFF" fill-opacity="1"/></g></g><g><rect x="0" y="0" width="50" height="50" rx="0" fill="#FFFFFF" fill-opacity="0"/></g></g></svg>